<svg width="135.47mm" height="135.47mm" version="1.1" viewBox="0 0 135.47 135.47" xmlns="http://www.w3.org/2000/svg"><g fill="none" stroke="#000"><g stroke-linecap="round" stroke-linejoin="round"><path transform="scale(.26458)" d="m220.57 52.99-90.035 90.033v315.99h250.93v-406.02h-160.9z" stroke-width="18.898" style="paint-order:markers stroke fill"/><g stroke-width="5"><path d="m47.536 42.957c13.773 2.65e-4 -2.2793 2.65e-4 11.493 0"/><path d="m47.536 101.83c13.773 2.7e-4 30.234 2.7e-4 44.006 0"/><path d="m47.536 87.114c13.773 2.7e-4 30.234 2.7e-4 44.006 0"/><path d="m47.536 72.395c13.773 2.7e-4 30.234 2.7e-4 44.006 0"/><path d="m47.536 57.676c13.773 2.7e-4 -2.2793 2.7e-4 11.493 0"/></g></g><g transform="matrix(.72963 0 0 .72963 87.925 20.339)"><rect x="-28.372" y="22.462" width="34.069" height="34.069" stroke-linecap="round" stroke-linejoin="round" stroke-width="5" style="paint-order:markers stroke fill"/><path transform="scale(.26458)" d="m19.053 157.53c-13.715-0.17815-33.624 8.4074-48.934 23.535-6.1454-5.7273-15.671-9.6839-22.512-10.004-21.82-1.0194-45.371 6.3951-54.839 42.601l128.76-5e-4 -1.4433-56.101c-0.0088-0.34119-0.68601-0.0267-1.0352-0.0312z" stroke-width="9.4488"/><circle cx="-18.695" cy="31.576" r="3.416" stroke-linecap="round" stroke-linejoin="round" stroke-width="2" style="paint-order:markers stroke fill"/></g></g></svg>
