<svg width="56.677mm" height="56.716mm" version="1.1" viewBox="0 0 56.677 56.716" xmlns="http://www.w3.org/2000/svg" xmlns:xlink="http://www.w3.org/1999/xlink"><defs><radialGradient id="a" cx="223.38" cy="481.42" r="109" gradientTransform="matrix(.0041709 -.51511 .26457 .0021391 -24.373 290.79)" gradientUnits="userSpaceOnUse"><stop stop-color="#f5821f" offset="0"/><stop stop-color="#ff7f2a" offset="1"/></radialGradient><linearGradient id="b" x1="173.42" x2="292.82" y1="320.56" y2="442.68" gradientUnits="userSpaceOnUse"><stop stop-color="#fff" offset="0"/><stop stop-color="#e6e6e6" offset="1"/></linearGradient></defs><g transform="translate(-76.115 -120.14)"><path d="m80.574 120.46c-2.3774-0.21589-4.3761 1.8239-4.1817 4.1817 0.01886 16.095-0.05802 32.193 0.03772 48.285-0.02106 2.6076 2.6557 3.9354 4.9625 3.6199 15.901-0.0489 31.811 0.0969 47.706-0.0713 2.6471-0.1086 3.6686-2.9281 3.3812-5.1992-0.0491-15.812 0.0971-31.633-0.0713-47.44-0.10724-2.6473-2.9329-3.6732-5.1992-3.3812-15.545 3e-3 -31.09-6e-3 -46.635 5e-3z" fill="url(#a)" stroke="#fdfdfd" stroke-width=".52911"/><rect x="78.45" y="122.32" width="51.969" height="51.885" rx="4" ry="4" fill="#fff" fill-opacity=".25703" style="paint-order:stroke fill markers"/><path transform="matrix(.26458 0 0 .26458 44.828 49.38)" d="m155.14 300.98c-0.37005 0-0.74023 1e-3 -1.1094 4e-3v22.287c0.3697-3e-3 0.73894-6e-3 1.1094-6e-3 66.046 0 119.59 50.313 119.59 112.38 0 4.2734-0.25389 8.4897-0.74805 12.639h23.85c0.41182-4.1608 0.625-8.3765 0.625-12.639 0-74.373-64.163-134.67-143.32-134.67zm0 44.92c-0.37039 0-0.73966 3e-3 -1.1094 8e-3v22.285c0.36931-5e-3 0.73918-8e-3 1.1094-8e-3 39.646 0 71.789 30.203 71.789 67.467 0 4.3208-0.42994 8.5449-1.2558 12.639h24.039c0.61996-4.1291 0.94336-8.3481 0.94336-12.639v-2e-3c0-49.565-42.76-89.75-95.516-89.75zm17.533 51.637c-11.358 0-20.566 9.2071-20.566 20.566 0 11.358 9.208 20.566 20.566 20.566 11.359 0 20.566-9.2081 20.566-20.566 0-11.359-9.2071-20.566-20.566-20.566z" fill="url(#b)" stroke="#cfcfcf" stroke-opacity=".90909" stroke-width="1.9998"/><path d="m131.52 142.75v-18.238c0-1.7006-1.3913-3.0919-3.092-3.0919h-47.984c-1.7006 0-3.0919 1.3913-3.0919 3.0919v19.163c7.4391 1.557 15.99 2.444 25.088 2.444 10.773 0 20.78-1.2422 29.08-3.3693z" fill-opacity="0" stroke-width=".26458"/></g></svg>
